/* XPM */
static char *_6e31c0523ea4516e43b43e71214e352PgSHit81vjtITliG[] = {
/* columns rows colors chars-per-pixel */
"32 32 13 1 ",
"  c None",
". c #141412",
"X c #261A26",
"o c #47280D",
"O c #463D35",
"+ c #432341",
"@ c #5F2E5C",
"# c #7C6C5E",
"$ c #804A1E",
"% c #F09A53",
"& c #932D8B",
"* c #CBC3BC",
"= c #FDFDFD",
/* pixels */
"            ......              ",
"           X&&&&&@.             ",
"           X@&&&&&&.            ",
"           XX@&&&&&&.           ",
"           X@&&&&&@@@.          ",
"           X&&&&&&&&&&.         ",
"          X$$$$$%%%%%%%.        ",
"         XX$$$$$%%%%%%%%..      ",
"       XX@@@@@@@&@&&&&&&&&..    ",
"     XX@@@@@@@@@&@&&&&&&&&&&.   ",
"    X@@@@&&&&&&OOoo$$$##.....   ",
"    XXXXXXX######%%%%%##.       ",
"          .====*$%%%%%..        ",
"          .====*%%%%%%.         ",
"          .====**%*===*.        ",
"         .&&&@=**==$$$=.        ",
"        .&&&&&@**======..       ",
"        .&&&&&@&&======..       ",
"        .&&&&&@&&======..       ",
"         .&&&@@&&======..       ",
"          ..++@@&*=====.        ",
"           .+++@@&*===*.        ",
"            .o$$$%$%%%%.        ",
"            .o$$$%$%%%%.        ",
"            ..++@+@+@@@.        ",
"            ..&&@&&&&&&.        ",
"           .+@&&@&&&&&&@.       ",
"           .@@&&&&&&&&&@.       ",
"           .@@&&&&&&&&&&.       ",
"          .+@&&&&&&&&&&&.       ",
"          .@@&&&@&&&&&&&.       ",
"         ++@@&&&@&&&&&&&@.      "
};
