/* XPM */
static char *a0b95d47fdd943b8cb02da6c774ee8da3iTenxmZH939alDS[] = {
/* columns rows colors chars-per-pixel */
"128 32 8 1 ",
"  c None",
". c #141412",
"X c #242A36",
"o c #47280D",
"O c #3B535E",
"+ c #B56C30",
"@ c #5C8EA5",
"# c #8AC6E0",
/* pixels */
"                                                                                                                                ",
"                                                                                                                                ",
"                                                                                                                                ",
"          XXXXXXX...                                                                                                            ",
"         XX@###O@OX..                                                                                     XXXXXXX...            ",
"        XX#####O@OXX..                    XXXXXXX...                      XXXXXXX...                     XX@###O@OX..           ",
"       XX@#####O@OXXX..                  XX@###O@OX..                    XX@###O@OX..                   XX#####O@OXX..          ",
"       X@@@#XXXXXX.....                 XX#####O@OXX..                  XX#####O@OXX..                 XX@#####O@OXXX..         ",
"       X@@XXO######@#@.                XX@#####O@OXXX..                XX@#####O@OXXX..                X@@@#XXXXXX.....         ",
"       XOXXO@######@#@.                X@@@####O@OXXX..                X@@@#XXXXXX.....                X@@XXO######@#@.         ",
"       XOX@@@######@#@.                X@@OXXXXXXXXXX..                X@@XXO######@#@.                XOXXO@######@#@.         ",
"       XO++@O..........                XOXXXO######@#@.                XOXXO@######@#@.                XOX@@@######@#@.         ",
"       XO++X.X.X.X.X...                XOX@@@######@#@.                XOX@@@######@#@.                XO++@O..........         ",
"       X.XXX.OXOXOXO..                 XO++@@######@#@.                XO++@O..........                XO++X.X.X.X.X...         ",
"        ..XOO########.                 XO++X.X.X.X.X...                XO++X.X.X.X.X...                X.XXX.OXOXOXO..          ",
"         ..XOO@@@@@@O.                 X.XXX.OXOXOXO..                 X.XXX.OXOXOXO..                  ..XOO########.          ",
"        O##@X..........                 ..XOO########.                  ..XOO########.                   ..XOO@@@@@@O.          ",
"       .####OOOXX.XXOXX.                 ..XOO@@@@@@O.                   ..XOO@@@@@@O.                  O##@X..........         ",
"       .####OOOO@@@OOXX.                O##@X..........                 O##@X..........                .####OOOXX.XXOXX.        ",
"       .@##O.@@#####@XX.               .####OOOXX.XXOXX.               .####OOOXX.XXOXX.               .####OOOO@@@OOXX.        ",
"        .....OOO@@@OO..                .####OOOO@@@OOXX.               .####OOOO@@@OOXX.               .@##O.@@#####@XX.        ",
"         ..XXOOO@@@OO.                 .@##O.@@#####@XX.               .@##O.@@#####@XX.                .....OOO@@@OO..         ",
"          .XXOOO@@@OX.                  .....OOO@@@OO..                 .....OOO@@@OO..                   .XXOOO@@@OX.          ",
"          ..ooo+++++.                    ..XXOOO@@@OO.                   ..XXOOO@@@OO.                    ..ooo+++++.           ",
"          ..XXXXXoXo.                     ..ooo+++++.                     ..ooo+++++.                     ..XXXXXoXo.           ",
"          .OOOXOO+O+X.                    ..XXXXXoXo.                     ..XXXXXoXo.                     .OOOXOO+O+X.          ",
"         .OOOXXOO+O+X.                    .OOOXOO+O+X.                    .OOOXOO+O+X.                   .OOOXXOO+O+X.          ",
"         .XX...OOOOO...                  .OOOXXOO+O+X..                  .OOOXXOO+O+X..                  .XX...OOOOO...         ",
"        .++++..OOOOO++.                 .++++..OOOOO++.                 .++++..OOOOO++.                 .++++..OOOOO++.         ",
"       .oooo......ooo.                 .oooo......ooo.                 .oooo...OOOOOo.                 .oooo......ooo.          ",
"      .oooo.     .ooo.                .oooo.     .ooo.                .oooo.     .ooo.                .oooo.     .ooo.          ",
"     .+++o.      .++++.              .+++o.      .++++.              .+++o.      .++++.              .+++o.      .++++.         "
};
